<?xml version="1.0" standalone="no"?>
<!DOCTYPE svg PUBLIC "-//W3C//DTD SVG 20010904//EN"
 "http://www.w3.org/TR/2001/REC-SVG-20010904/DTD/svg10.dtd">
<svg version="1.0" xmlns="http://www.w3.org/2000/svg"
 width="2441.000000pt" height="315.000000pt" viewBox="0 0 2441.000000 315.000000"
 preserveAspectRatio="xMidYMid meet">

<g transform="translate(0.000000,315.000000) scale(0.100000,-0.100000)"
fill="#000000" stroke="none">
<path d="M2780 3060 c-636 -42 -1229 -174 -1695 -377 -49 -22 -106 -48 -127
-59 l-36 -19 1116 -503 c615 -276 1122 -502 1127 -502 6 0 513 226 1127 502
l1118 503 -88 42 c-413 199 -960 336 -1592 398 -185 19 -757 27 -950 15z"/>
<path d="M23038 2373 c-24 -48 -40 -50 -115 -15 -140 64 -230 28 -258 -105
l-7 -33 46 0 c38 0 45 3 48 22 2 12 15 29 29 37 25 14 32 12 98 -17 79 -36
143 -41 179 -16 25 18 56 74 67 122 7 32 7 32 -34 32 -33 0 -42 -4 -53 -27z"/>
<path d="M373 2224 c-105 -106 -194 -229 -239 -332 -15 -34 -25 -64 -23 -66 5
-5 2841 -217 2846 -213 4 4 -2420 699 -2459 705 -23 3 -41 -10 -125 -94z"/>
<path d="M4593 1967 c-673 -193 -1221 -352 -1220 -354 2 -2 635 44 1406 102
771 58 1411 105 1422 105 10 0 19 5 19 11 0 22 -80 172 -127 238 -67 95 -227
251 -255 250 -13 0 -573 -159 -1245 -352z"/>
<path d="M11870 2137 c-75 -18 -111 -38 -158 -92 -50 -57 -66 -113 -60 -214 7
-128 45 -176 233 -296 111 -70 142 -99 166 -150 24 -51 24 -99 0 -151 -50
-109 -181 -137 -329 -69 -30 14 -56 25 -58 25 -2 0 -4 -33 -4 -74 l0 -73 63
-19 c40 -11 97 -18 162 -18 94 -1 105 1 168 32 72 36 103 69 139 148 31 70 31
199 -2 267 -32 67 -92 125 -195 188 -117 71 -184 134 -194 179 -9 41 3 101 26
136 47 72 182 84 316 29 16 -7 18 -2 15 61 l-3 68 -44 13 c-67 19 -180 24
-241 10z"/>
<path d="M19240 2139 c-84 -14 -188 -69 -249 -134 -222 -235 -194 -730 52
-911 110 -82 284 -111 445 -75 l62 14 0 72 0 73 -62 -25 c-69 -28 -172 -34
-244 -14 -102 28 -186 118 -225 241 -27 84 -37 265 -19 341 29 125 101 223
197 271 41 20 63 23 153 23 87 0 113 -4 153 -22 l47 -22 0 68 c0 63 -2 69 -26
80 -30 13 -144 31 -194 30 -19 -1 -60 -5 -90 -10z"/>
<path d="M20030 2137 c-120 -28 -201 -95 -255 -210 -47 -100 -65 -200 -65
-359 0 -159 17 -247 64 -343 44 -89 104 -150 186 -189 57 -27 75 -30 155 -30
105 -1 167 18 237 69 99 73 160 209 178 404 36 383 -113 647 -375 666 -41 2
-93 -1 -125 -8z m209 -140 c22 -15 52 -44 66 -65 101 -153 112 -492 21 -670
-84 -164 -277 -192 -383 -54 -84 110 -114 362 -67 570 26 115 85 201 164 237
54 24 148 16 199 -18z"/>
<path d="M6924 2126 c-3 -8 -4 -200 -2 -428 4 -455 6 -465 69 -558 80 -118
248 -167 411 -120 89 25 176 116 210 220 8 24 13 173 15 468 l4 432 -70 0 -71
0 0 -378 c0 -463 -8 -520 -87 -594 -76 -72 -206 -62 -276 22 -57 67 -60 98
-65 543 l-4 407 -64 0 c-46 0 -66 -4 -70 -14z"/>
<path d="M7880 1575 l0 -565 65 0 65 0 2 461 3 461 211 -459 211 -458 86 -3
87 -3 0 566 0 565 -65 0 -65 0 -2 -462 -3 -463 -211 460 -210 460 -87 3 -87 3
0 -566z"/>
<path d="M8860 1575 l0 -565 70 0 70 0 0 565 0 565 -70 0 -70 0 0 -565z"/>
<path d="M9144 2125 c3 -9 81 -263 173 -565 l167 -550 71 0 71 0 173 553 c96
303 176 558 179 565 3 10 -12 12 -69 10 l-73 -3 -136 -447 c-74 -246 -137
-449 -140 -452 -3 -2 -63 200 -134 450 l-128 454 -80 0 c-68 0 -79 -2 -74 -15z"/>
<path d="M10120 1575 l0 -565 270 0 270 0 0 65 0 65 -200 0 -200 0 0 195 0
195 180 0 180 0 0 65 0 65 -180 0 -180 0 0 175 0 175 190 0 190 0 0 65 0 65
-260 0 -260 0 0 -565z"/>
<path d="M10865 2128 c-3 -7 -4 -260 -3 -563 l3 -550 68 -3 67 -3 0 256 0 255
63 0 c71 0 120 -20 150 -62 11 -15 52 -121 91 -235 l71 -208 78 -3 c42 -2 77
-1 77 0 0 16 -171 483 -184 502 -9 14 -32 34 -52 44 l-36 18 44 14 c57 19 140
101 156 156 31 107 3 240 -65 306 -50 47 -87 65 -164 77 -94 16 -358 14 -364
-1z m327 -118 c44 -13 93 -52 113 -91 32 -61 9 -186 -41 -231 -38 -34 -91 -48
-179 -48 l-85 0 0 183 c0 101 3 187 7 190 10 11 144 8 185 -3z"/>
<path d="M12415 2128 c-3 -7 -4 -260 -3 -563 l3 -550 70 0 70 0 0 560 0 560
-68 3 c-48 2 -69 -1 -72 -10z"/>
<path d="M12790 1574 l0 -567 148 6 c175 6 233 18 329 63 168 80 255 232 269
469 20 325 -141 552 -416 585 -46 5 -140 10 -207 10 l-123 0 0 -566z m397 407
c61 -27 136 -102 162 -164 28 -65 41 -139 41 -230 -1 -285 -136 -447 -375
-447 l-85 0 0 436 0 436 103 -4 c78 -3 114 -10 154 -27z"/>
<path d="M13966 2131 c-7 -11 -376 -1105 -376 -1114 0 -4 31 -7 69 -7 l70 0
36 118 c20 64 41 132 46 150 l11 32 208 0 c150 0 211 -3 216 -12 4 -6 26 -73
49 -147 l42 -136 71 -3 c51 -2 72 1 72 9 0 13 -15 59 -226 707 l-135 412 -74
0 c-41 0 -76 -4 -79 -9z m158 -420 c43 -139 80 -260 83 -267 4 -12 -26 -14
-172 -14 -138 0 -176 3 -172 13 2 6 42 130 88 275 45 144 86 259 89 255 4 -5
41 -122 84 -262z"/>
<path d="M14610 1573 l0 -566 153 6 c83 4 181 13 216 22 256 62 396 284 378
600 -10 167 -58 285 -153 375 -104 99 -218 130 -471 130 l-123 0 0 -567z m397
408 c61 -27 136 -102 162 -164 28 -65 41 -139 41 -230 -1 -285 -136 -447 -375
-447 l-85 0 0 436 0 436 103 -4 c78 -3 114 -10 154 -27z"/>
<path d="M15550 1575 l0 -565 270 0 270 0 0 65 0 65 -200 0 -200 0 0 195 0
195 180 0 180 0 0 65 0 65 -180 0 -180 0 0 175 0 175 190 0 190 0 0 65 0 65
-260 0 -260 0 0 -565z"/>
<path d="M16665 2129 c-3 -8 -4 -261 -3 -564 l3 -550 150 1 c230 2 340 38 451
148 103 104 147 229 147 426 0 183 -46 314 -147 416 -100 100 -175 123 -418
131 -146 5 -178 3 -183 -8z m407 -153 c103 -49 167 -146 189 -286 27 -177 -22
-369 -118 -462 -60 -59 -122 -81 -235 -86 l-98 -4 0 437 0 438 103 -5 c84 -4
112 -9 159 -32z"/>
<path d="M17656 1585 c-102 -305 -186 -560 -186 -565 0 -6 30 -10 68 -10 l68
0 46 148 46 147 213 0 213 0 41 -130 c22 -71 43 -138 47 -147 6 -15 20 -18 78
-18 38 0 70 3 70 8 0 4 -82 258 -182 565 l-182 557 -77 0 -77 0 -186 -555z
m347 117 l84 -272 -173 0 c-96 0 -174 3 -174 6 0 6 91 297 147 467 14 43 27
77 29 75 2 -2 41 -126 87 -276z"/>
<path d="M20740 1576 l0 -566 70 0 70 0 0 255 0 255 60 0 c76 0 124 -20 149
-61 11 -17 52 -126 91 -240 l72 -209 74 0 c41 0 74 4 74 10 0 15 -156 453
-173 487 -9 17 -34 39 -56 50 l-40 20 38 11 c21 7 57 26 80 43 127 92 128 338
1 439 -68 54 -106 62 -317 67 l-193 6 0 -567z m370 418 c127 -74 112 -273 -25
-335 -28 -13 -64 -19 -122 -19 l-83 0 0 191 0 191 98 -4 c75 -3 106 -8 132
-24z"/>
<path d="M21574 2126 c-3 -8 -4 -200 -2 -428 5 -453 6 -467 67 -558 97 -146
342 -183 498 -76 49 33 103 109 125 176 8 24 13 173 15 468 l4 432 -70 0 -71
0 0 -378 c0 -463 -8 -520 -87 -594 -78 -74 -211 -62 -278 26 -56 73 -58 96
-63 539 l-4 407 -64 0 c-47 0 -66 -4 -70 -14z"/>
<path d="M22530 1575 l0 -565 65 0 65 0 2 461 3 461 211 -459 210 -458 87 -3
87 -3 0 566 0 565 -65 0 -65 0 0 -462 c0 -254 -3 -459 -6 -456 -3 4 -99 210
-213 460 l-207 453 -87 3 -87 3 0 -566z"/>
<path d="M23775 2128 c-3 -7 -85 -254 -184 -548 -99 -294 -183 -543 -187 -553
-6 -16 0 -18 67 -15 l73 3 41 130 c22 72 43 138 47 148 7 15 27 17 217 17
l210 0 41 -132 c23 -73 44 -141 46 -150 5 -15 17 -18 80 -18 41 0 74 1 74 3 0
1 -82 254 -183 562 l-183 560 -77 3 c-56 2 -79 -1 -82 -10z m245 -690 c0 -5
-78 -8 -174 -8 l-173 0 82 259 c45 142 85 267 89 278 5 12 34 -67 92 -252 46
-148 84 -273 84 -277z"/>
<path d="M2045 1059 c-605 -268 -1109 -493 -1120 -498 -17 -8 -4 -17 85 -59
352 -166 809 -295 1280 -361 329 -46 479 -55 875 -55 396 0 546 9 875 55 471
66 929 195 1280 361 l105 50 -40 18 c-22 10 -527 234 -1123 499 -596 264
-1091 481 -1100 480 -9 0 -512 -221 -1117 -490z"/>
<path d="M1470 1441 c-1304 -92 -1365 -97 -1362 -115 7 -39 54 -132 109 -215
55 -83 230 -271 251 -271 11 0 2420 675 2462 690 48 16 -89 8 -1460 -89z"/>
<path d="M3400 1530 c43 -16 2450 -690 2462 -690 21 0 196 188 252 273 50 76
124 224 114 231 -4 3 -2819 197 -2838 196 -8 -1 -4 -6 10 -10z"/>
</g>
</svg>
