<?xml version="1.0" standalone="no"?>
<!DOCTYPE svg PUBLIC "-//W3C//DTD SVG 20010904//EN"
 "http://www.w3.org/TR/2001/REC-SVG-20010904/DTD/svg10.dtd">
<svg version="1.0" xmlns="http://www.w3.org/2000/svg"
 width="225.000000pt" height="225.000000pt" viewBox="0 0 225.000000 225.000000"
 preserveAspectRatio="xMidYMid meet">

<g transform="translate(0.000000,225.000000) scale(0.100000,-0.100000)"
fill="#000000" stroke="none">
<path d="M990 1604 c-19 -2 -78 -9 -130 -15 -52 -6 -138 -22 -190 -35 -93 -23
-260 -83 -260 -94 0 -5 704 -323 715 -323 13 0 715 318 715 324 0 9 -153 66
-240 89 -41 11 -120 27 -175 35 -100 15 -368 27 -435 19z"/>
<path d="M213 1327 c-39 -44 -77 -107 -69 -114 4 -5 837 -73 881 -72 19 0
-740 218 -761 219 -13 0 -35 -14 -51 -33z"/>
<path d="M1590 1250 c-206 -60 -370 -109 -365 -109 41 -1 877 67 882 72 7 8
-38 80 -75 120 -14 15 -35 27 -46 26 -12 0 -190 -49 -396 -109z"/>
<path d="M763 956 c-199 -89 -359 -164 -355 -167 20 -17 169 -70 262 -93 157
-38 266 -50 455 -50 187 0 297 12 453 50 91 22 246 77 264 93 4 3 -106 56
-245 118 -139 61 -301 134 -362 161 l-110 49 -362 -161z"/>
<path d="M550 1078 c-223 -16 -407 -32 -409 -34 -8 -8 31 -74 69 -117 l36 -40
385 107 c211 60 386 110 388 112 7 6 -33 4 -469 -28z"/>
<path d="M1230 1107 c3 -2 178 -53 389 -113 l385 -107 36 40 c37 43 77 109 70
117 -3 2 -174 16 -380 30 -206 14 -404 29 -440 32 -36 4 -63 4 -60 1z"/>
</g>
</svg>
